# WaveFront *.obj file (generated by CINEMA 4D)

mtllib ./FlowerKern.mtl

v 26.26644515991211 53.86127471923828 0
v -26.26644515991211 53.86127471923828 0
v 0 37.62771987915039 42.5
v 0 -14.9051685333252 42.5
v 26.26644515991211 -31.13872337341309 0
v -26.26644515991211 -31.13872337341309 0
v 0 -14.9051685333252 -42.5
v 0 37.62771987915039 -42.5
v 42.5 11.36127662658691 26.26644515991211
v 42.5 11.36127662658691 -26.26644515991211
v -42.5 11.36127662658691 -26.26644515991211
v -42.5 11.36127662658691 26.26644515991211
# 12 vertices

vn 0.93417239189148 0.3568220436573 0
vn 0 0 0
vn 0.57735025882721 0.57735031843185 0.57735031843185
vn 0.3568220436573 0 0.93417239189148
vn 0.57735025882721 -0.57735025882721 0.57735025882721
vn 0.93417239189148 -0.3568220436573 0
vn 0.57735025882721 -0.57735025882721 -0.57735025882721
vn 0.3568220436573 0 -0.93417239189148
vn 0.57735025882721 0.57735031843185 -0.57735031843185
vn -0.93417239189148 0.3568220436573 0
vn -0.57735025882721 0.57735031843185 0.57735025882721
vn -0.3568220436573 0 0.93417239189148
vn -0.57735025882721 -0.57735025882721 0.57735025882721
vn -0.93417239189148 -0.3568220436573 0
vn -0.57735025882721 -0.57735025882721 -0.57735025882721
vn -0.3568220436573 0 -0.93417239189148
vn -0.57735025882721 0.57735031843185 -0.57735025882721
vn 0 0.93417239189148 -0.3568220436573
vn 0 0.93417239189148 0.3568220436573
vn 0 -0.93417239189148 0.3568220436573
vn 0 -0.93417239189148 -0.3568220436573
# 21 normals

vt 0.69999998807907 0.307000041008 0
vt 0.60000002384186 0.1340000629425 0
vt 0.5 0.307000041008 0
vt 0 1 0
vt 0.40000000596046 0.1340000629425 0
vt 0.10000000149012 1 0
vt 0.19999998807907 0.82700002193451 0
vt 0 0.82700002193451 0
vt 0.30000001192093 1 0
vt 1 0.48000001907349 0
vt 0.80000001192093 0.48000001907349 0
vt 0.89999997615814 0.65299999713898 0
vt 0.69999998807907 0.65299999713898 0
vt 0.60000002384186 0.48000001907349 0
vt 0.30000001192093 0.65299999713898 0
vt 0.5 0.65299999713898 0
vt 0.39999997615814 0.48000001907349 0
vt 0.30000001192093 0.307000041008 0
vt 0.20000000298023 0.48000001907349 0
vt 0.10000000149012 0.65400004386902 0
vt 0.39999997615814 0.82700002193451 0
vt 0.5 1 0
vt 0.60000002384186 0.82700002193451 0
# 23 texture coordinates

o FlowerKern
usemtl Mat
f 1/3/1 9/2/1 10/1/1
f 1/3/3 3/5/3 9/2/3
f 3/8/4 4/7/4 9/6/4
f 4/7/5 5/9/5 9/6/5
f 5/12/6 10/11/6 9/10/6
f 7/13/7 10/11/7 5/12/7
f 8/14/8 10/11/8 7/13/8
f 8/14/9 1/3/9 10/1/9
f 2/17/10 11/16/10 12/15/10
f 2/17/11 12/19/11 3/18/11
f 12/15/12 4/7/12 3/20/12
f 12/15/13 6/21/13 4/7/13
f 12/15/14 11/16/14 6/21/14
f 11/23/15 7/22/15 6/21/15
f 11/16/16 8/14/16 7/13/16
f 11/16/17 2/17/17 8/14/17
f 1/3/18 8/14/18 2/17/18
f 1/3/19 2/17/19 3/18/19
f 4/7/20 6/21/20 5/9/20
f 6/21/21 7/22/21 5/9/21

