{
	"asset":{
		"version":"2.0",
		"generator":"Created using the official Cinema 4D glTF Exporter 1.000x290161"
	},
	"scenes":[{
		"nodes":[0]
	}],
	"nodes":[{
		"name":"FlowerKern",
		"mesh":0
	}],
	"meshes":[{
		"primitives":[{
			"attributes":{
				"POSITION":1,
				"NORMAL":2,
				"TEXCOORD_0":3
			},
			"indices":0,
			"material":0
		}]
	}],
	"accessors":[{
		"bufferView":0,
		"type":"SCALAR",
		"componentType":5123,
		"count":60,
		"byteOffset":0,
		"min":[0],
		"max":[59]
	},
	{
		"bufferView":1,
		"type":"VEC3",
		"componentType":5126,
		"count":60,
		"byteOffset":0,
		"min":[-42.5,
		-31.14743423461914,
		-42.5],
		"max":[42.5,
		53.85256576538086,
		42.5]
	},
	{
		"bufferView":1,
		"type":"VEC3",
		"componentType":5126,
		"count":60,
		"byteOffset":12,
		"min":[-0.9341723322868347,
		-0.9341723322868347,
		-0.9341723322868347],
		"max":[0.9341723322868347,
		0.9341723322868347,
		0.9341723322868347]
	},
	{
		"bufferView":1,
		"type":"VEC2",
		"componentType":5126,
		"count":60,
		"byteOffset":24,
		"min":[0.0,
		0.0],
		"max":[1.0,
		0.8659999370574951]
	}],
	"bufferViews":[{
		"target":34963,
		"buffer":0,
		"byteOffset":0,
		"byteLength":120
	},
	{
		"target":34962,
		"buffer":0,
		"byteOffset":120,
		"byteLength":1920,
		"byteStride":32
	}],
	"buffers":[{
		"uri":"data:application/octet-stream;base64,",
		"byteLength":2040
	}],
	"materials":[{
		"pbrMetallicRoughness":{
			"baseColorFactor":[0.8,
			0.8,
			0.8,
			0.0],
			"metallicFactor":0.0,
			"roughnessFactor":0.5
		},
		"emissiveFactor":[0.0,
		0.0,
		0.0],
		"alphaMode":"BLEND",
		"doubleSided":true,
		"name":"Mat"
	}]
}