{
	"asset":{
		"version":"2.0",
		"generator":"Created using the official Cinema 4D glTF Exporter 1.000x290161"
	},
	"scenes":[{
		"nodes":[0]
	}],
	"nodes":[{
		"name":"Flower",
		"children":[1,
		2]
	},
	{
		"name":"Kern",
		"translation":[0.0,
		11.361276626586914,
		0.0],
		"rotation":[0.0,
		0.0,
		0.0,
		-1.0],
		"scale":[0.5,
		0.5,
		0.5],
		"mesh":0
	},
	{
		"name":"Petals",
		"translation":[0.0,
		0.0,
		0.0],
		"rotation":[0.0,
		0.0,
		0.0,
		-1.0],
		"scale":[1.0,
		1.0,
		1.0],
		"mesh":1
	}],
	"meshes":[{
		"primitives":[{
			"attributes":{
				"POSITION":1,
				"NORMAL":2,
				"TEXCOORD_0":3
			},
			"indices":0,
			"material":0
		}]
	},
	{
		"primitives":[{
			"attributes":{
				"POSITION":9,
				"NORMAL":10,
				"TEXCOORD_0":11
			},
			"indices":8,
			"material":1
		}]
	}],
	"accessors":[{
		"bufferView":0,
		"type":"SCALAR",
		"componentType":5123,
		"count":60,
		"byteOffset":0,
		"min":[0],
		"max":[59]
	},
	{
		"bufferView":1,
		"type":"VEC3",
		"componentType":5126,
		"count":60,
		"byteOffset":0,
		"min":[-85.06521606445313,
		-85.06521606445313,
		-85.06521606445313],
		"max":[85.06521606445313,
		85.06521606445313,
		85.06521606445313]
	},
	{
		"bufferView":1,
		"type":"VEC3",
		"componentType":5126,
		"count":60,
		"byteOffset":12,
		"min":[-0.9341250658035278,
		-0.9341250658035278,
		-0.9341250658035278],
		"max":[0.9341250658035278,
		0.9341250658035278,
		0.9341250658035278]
	},
	{
		"bufferView":1,
		"type":"VEC2",
		"componentType":5126,
		"count":60,
		"byteOffset":24,
		"min":[0.0,
		0.0],
		"max":[1.0,
		0.8659999370574951]
	},
	{
		"bufferView":2,
		"type":"SCALAR",
		"componentType":5126,
		"count":101,
		"byteOffset":0,
		"min":[0.0],
		"max":[4.0]
	},
	{
		"bufferView":2,
		"type":"VEC4",
		"componentType":5126,
		"count":101,
		"byteOffset":404,
		"min":[0.0,
		0.0,
		0.0,
		-1.0],
		"max":[0.0,
		0.0,
		7.450580596923828e-9,
		-1.0]
	},
	{
		"bufferView":3,
		"type":"SCALAR",
		"componentType":5126,
		"count":121,
		"byteOffset":0,
		"min":[0.0],
		"max":[4.0]
	},
	{
		"bufferView":3,
		"type":"VEC3",
		"componentType":5126,
		"count":121,
		"byteOffset":484,
		"min":[0.10000000149011612,
		0.10000000149011612,
		0.10000000149011612],
		"max":[0.5,
		0.5,
		0.5]
	},
	{
		"bufferView":4,
		"type":"SCALAR",
		"componentType":5123,
		"count":1260,
		"byteOffset":0,
		"min":[0],
		"max":[1189]
	},
	{
		"bufferView":5,
		"type":"VEC3",
		"componentType":5126,
		"count":1190,
		"byteOffset":0,
		"min":[-200.3062744140625,
		-25.246259689331056,
		-206.543212890625],
		"max":[198.80223083496095,
		271.17657470703127,
		201.6022491455078]
	},
	{
		"bufferView":5,
		"type":"VEC3",
		"componentType":5126,
		"count":1190,
		"byteOffset":12,
		"min":[-0.998468816280365,
		-0.47687503695487978,
		-0.9993438124656677],
		"max":[0.9981563091278076,
		0.9999688267707825,
		0.9961875677108765]
	},
	{
		"bufferView":5,
		"type":"VEC2",
		"componentType":5126,
		"count":1190,
		"byteOffset":24,
		"min":[0.0,
		0.0],
		"max":[1.0,
		1.0]
	},
	{
		"bufferView":6,
		"type":"SCALAR",
		"componentType":5126,
		"count":101,
		"byteOffset":0,
		"min":[0.0],
		"max":[4.0]
	},
	{
		"bufferView":6,
		"type":"VEC4",
		"componentType":5126,
		"count":101,
		"byteOffset":404,
		"min":[0.0,
		0.0,
		0.0,
		-1.0],
		"max":[0.5,
		0.5,
		0.5,
		-0.5]
	},
	{
		"bufferView":7,
		"type":"SCALAR",
		"componentType":5126,
		"count":121,
		"byteOffset":0,
		"min":[0.0],
		"max":[4.0]
	},
	{
		"bufferView":7,
		"type":"VEC3",
		"componentType":5126,
		"count":121,
		"byteOffset":484,
		"min":[0.0,
		0.0,
		0.0],
		"max":[1.0,
		1.0,
		1.0]
	}],
	"bufferViews":[{
		"target":34963,
		"buffer":0,
		"byteOffset":0,
		"byteLength":120
	},
	{
		"target":34962,
		"buffer":0,
		"byteOffset":120,
		"byteLength":1920,
		"byteStride":32
	},
	{
		"buffer":1,
		"byteOffset":0,
		"byteLength":2020
	},
	{
		"buffer":1,
		"byteOffset":2020,
		"byteLength":1936
	},
	{
		"target":34963,
		"buffer":2,
		"byteOffset":0,
		"byteLength":2520
	},
	{
		"target":34962,
		"buffer":2,
		"byteOffset":2520,
		"byteLength":38080,
		"byteStride":32
	},
	{
		"buffer":3,
		"byteOffset":0,
		"byteLength":2020
	},
	{
		"buffer":3,
		"byteOffset":2020,
		"byteLength":1936
	}],
	"buffers":[{
		"uri":"data:application/octet-stream;base64,",
		"byteLength":2040
	},
	{
		"uri":"data:application/octet-stream;base64,",
		"byteLength":3956
	},
	{
		"uri":"data:application/octet-stream;base64,",
		"byteLength":40600
	},
	{
		"uri":"data:application/octet-stream;base64,",
		"byteLength":3956
	}],
	"materials":[{
		"pbrMetallicRoughness":{
			"baseColorFactor":[0.8,
			0.8,
			0.8,
			0.0],
			"metallicFactor":0.0,
			"roughnessFactor":0.5
		},
		"emissiveFactor":[0.0,
		0.0,
		0.0],
		"alphaMode":"BLEND",
		"doubleSided":true,
		"name":"Mat"
	},
	{
		"pbrMetallicRoughness":{
			"baseColorFactor":[0.8,
			0.8,
			0.8,
			0.0],
			"metallicFactor":0.0,
			"roughnessFactor":0.5
		},
		"emissiveFactor":[0.0,
		0.0,
		0.0],
		"alphaMode":"BLEND",
		"doubleSided":true,
		"name":"Mat"
	}],
	"animations":[{
		"samplers":[{
			"input":4,
			"interpolation":"LINEAR",
			"output":5
		},
		{
			"input":6,
			"interpolation":"LINEAR",
			"output":7
		},
		{
			"input":12,
			"interpolation":"LINEAR",
			"output":13
		},
		{
			"input":14,
			"interpolation":"LINEAR",
			"output":15
		}],
		"channels":[{
			"sampler":0,
			"target":{
				"node":1,
				"path":"rotation"
			}
		},
		{
			"sampler":1,
			"target":{
				"node":1,
				"path":"scale"
			}
		},
		{
			"sampler":2,
			"target":{
				"node":2,
				"path":"rotation"
			}
		},
		{
			"sampler":3,
			"target":{
				"node":2,
				"path":"scale"
			}
		}]
	}]
}