{
	"asset":{
		"version":"2.0",
		"generator":"Created using the official Cinema 4D glTF Exporter 1.000x290161"
	},
	"scenes":[{
		"nodes":[0]
	}],
	"nodes":[{
		"name":"FlowerPetals",
		"mesh":0
	}],
	"meshes":[{
		"primitives":[{
			"attributes":{
				"POSITION":1,
				"NORMAL":2,
				"TEXCOORD_0":3
			},
			"indices":0,
			"material":0
		}]
	}],
	"accessors":[{
		"bufferView":0,
		"type":"SCALAR",
		"componentType":5123,
		"count":1260,
		"byteOffset":0,
		"min":[0],
		"max":[1189]
	},
	{
		"bufferView":1,
		"type":"VEC3",
		"componentType":5126,
		"count":1190,
		"byteOffset":0,
		"min":[-200.3062744140625,
		-13.884984016418457,
		-206.543212890625],
		"max":[198.80223083496095,
		282.537841796875,
		201.6022491455078]
	},
	{
		"bufferView":1,
		"type":"VEC3",
		"componentType":5126,
		"count":1190,
		"byteOffset":12,
		"min":[-0.9985239505767822,
		-0.4768754839897156,
		-0.9993783235549927],
		"max":[0.9982072710990906,
		0.9999944567680359,
		0.9962092041969299]
	},
	{
		"bufferView":1,
		"type":"VEC2",
		"componentType":5126,
		"count":1190,
		"byteOffset":24,
		"min":[0.0,
		0.0],
		"max":[1.0,
		1.0]
	}],
	"bufferViews":[{
		"target":34963,
		"buffer":0,
		"byteOffset":0,
		"byteLength":2520
	},
	{
		"target":34962,
		"buffer":0,
		"byteOffset":2520,
		"byteLength":38080,
		"byteStride":32
	}],
	"buffers":[{
		"uri":"data:application/octet-stream;base64,",
		"byteLength":40600
	}],
	"materials":[{
		"pbrMetallicRoughness":{
			"baseColorFactor":[0.8,
			0.8,
			0.8,
			0.0],
			"metallicFactor":0.0,
			"roughnessFactor":0.5
		},
		"emissiveFactor":[0.0,
		0.0,
		0.0],
		"alphaMode":"BLEND",
		"doubleSided":true,
		"name":"Mat"
	}]
}