{
	"asset":{
		"version":"2.0",
		"generator":"Created using the official Cinema 4D glTF Exporter 1.000x290161"
	},
	"scenes":[{
		"nodes":[0]
	}],
	"nodes":[{
		"name":"tulule_anim_2",
		"translation":[0.0,
		0.0,
		0.0],
		"rotation":[0.0,
		0.0,
		0.0,
		-1.0],
		"scale":[1.0,
		1.0,
		1.0],
		"mesh":0
	}],
	"meshes":[{
		"primitives":[{
			"attributes":{
				"POSITION":1,
				"NORMAL":2,
				"TEXCOORD_0":3
			},
			"indices":0,
			"material":0
		}]
	}],
	"accessors":[{
		"componentType":5123,
		"bufferView":0,
		"type":"SCALAR",
		"count":1740,
		"byteOffset":0,
		"min":[0],
		"max":[502]
	},
	{
		"componentType":5126,
		"bufferView":1,
		"type":"VEC3",
		"count":503,
		"byteOffset":0,
		"min":[-123.44200897216797,
		-130.451904296875,
		-126.98928833007813],
		"max":[118.10597229003906,
		71.95665740966797,
		126.98928833007813]
	},
	{
		"componentType":5126,
		"bufferView":1,
		"type":"VEC3",
		"count":503,
		"byteOffset":12,
		"min":[-1.0,
		-0.9999999403953552,
		-0.9788010716438294],
		"max":[1.0,
		1.0,
		0.9788010716438294]
	},
	{
		"componentType":5126,
		"bufferView":1,
		"type":"VEC2",
		"count":503,
		"byteOffset":24,
		"min":[0.0,
		0.0],
		"max":[1.0,
		1.0]
	}],
	"bufferViews":[{
		"buffer":0,
		"target":34963,
		"byteOffset":0,
		"byteLength":3480
	},
	{
		"buffer":0,
		"target":34962,
		"byteOffset":3480,
		"byteLength":16096,
		"byteStride":32
	}],
	"buffers":[{
		"uri":"data:application/octet-stream;base64,",
		"byteLength":19576
	}],
	"materials":[{
		"pbrMetallicRoughness":{
			"baseColorFactor":[0.8,
			0.8,
			0.8,
			1.0],
			"metallicFactor":0.0,
			"roughnessFactor":0.5
		},
		"emissiveFactor":[0.0,
		0.0,
		0.0],
		"alphaMode":"OPAQUE",
		"doubleSided":true,
		"name":"Mat.1"
	}]
}